<svg version="1.1" id="Layer_1" xmlns:x="ns_extend;" xmlns:i="ns_ai;" xmlns:graph="ns_graphs;" xmlns="http://www.w3.org/2000/svg" xmlns:xlink="http://www.w3.org/1999/xlink" x="0px" y="0px" viewBox="0 0 244.9 50" style="enable-background:new 0 0 244.9 50;" xml:space="preserve">
 <style type="text/css">
  .st0{fill:#FF3924;}
 </style>
 <metadata>
  <sfw xmlns="ns_sfw;">
   <slices>
   </slices>
   <sliceSourceBounds bottomLeftOrigin="true" height="50" width="244.9" x="-53.9" y="0">
   </sliceSourceBounds>
  </sfw>
 </metadata>
 <g>
  <path class="st0" d="M8.1,50c3.9,0,7.1-3.2,7.1-7.2c0-4-3.2-7.2-7.1-7.2S1,38.9,1,42.8C1,46.8,4.2,50,8.1,50z">
  </path>
  <path class="st0" d="M23.9,39.2c2.4-3.2-0.9-9.6-7.3-14.5c-6.4-4.8-13.5-6.2-15.8-3c-2.4,3.2,0.9,9.6,7.3,14.5
		C14.4,41,21.5,42.3,23.9,39.2z">
  </path>
  <path class="st0" d="M34.3,37.3c3.5-2.5,0.6-12.7-6.5-22.9C20.8,4.3,12.2-1.9,8.7,0.5s-0.6,12.7,6.5,22.9
		C22.3,33.6,30.9,39.8,34.3,37.3z">
  </path>
  <path class="st0" d="M61.4,25c0,5.7-3.8,8.7-7.6,8.7c-2.4,0-4.2-1.1-5.3-2.9v9.5h-4.4V16.7H48l0.4,2.7c1-2,2.9-3.1,5.4-3.1
		C57.6,16.3,61.4,19.3,61.4,25L61.4,25z M57,25c0-2.9-1.9-4.8-4.3-4.8c-2,0-4.2,1.6-4.2,4.8c0,3.3,2.1,4.8,4.2,4.8
		C55.2,29.8,57,28,57,25z">
  </path>
  <path class="st0" d="M76.4,16.7H80v16.7h-3.7l-0.4-2.4c-0.9,1.7-3,2.8-5.6,2.8c-3.8,0-7.7-3-7.7-8.7c0-5.7,3.8-8.7,7.7-8.7
		c2.6,0,4.7,1.1,5.6,2.8L76.4,16.7L76.4,16.7z M75.7,25c0-3-2.2-4.8-4.2-4.8C69,20.2,67,22.1,67,25c0,2.9,2,4.8,4.4,4.8
		C73.6,29.8,75.7,28.2,75.7,25z">
  </path>
  <path class="st0" d="M115.1,16.7h3.5v16.7h-3.7l-0.4-2.4c-0.9,1.7-3,2.8-5.6,2.8c-3.8,0-7.7-3-7.7-8.7c0-5.7,3.8-8.7,7.7-8.7
		c2.6,0,4.7,1.1,5.6,2.8L115.1,16.7L115.1,16.7z M114.3,25c0-3-2.2-4.8-4.2-4.8c-2.5,0-4.4,1.8-4.4,4.8c0,2.9,2,4.8,4.4,4.8
		C112.2,29.8,114.3,28.2,114.3,25z">
  </path>
  <path class="st0" d="M150.2,16.7h3.5v16.7h-3.7l-0.4-2.4c-0.9,1.7-3,2.8-5.6,2.8c-3.8,0-7.7-3-7.7-8.7c0-5.7,3.8-8.7,7.7-8.7
		c2.6,0,4.7,1.1,5.6,2.8L150.2,16.7L150.2,16.7z M149.5,25c0-3-2.2-4.8-4.2-4.8c-2.5,0-4.4,1.8-4.4,4.8c0,2.9,2,4.8,4.4,4.8
		C147.4,29.8,149.5,28.2,149.5,25z">
  </path>
  <path class="st0" d="M99.9,25c0,5.7-3.8,8.7-7.6,8.7c-2.4,0-4.2-1.1-5.3-2.9v9.5h-4.4V16.7h3.9l0.4,2.7c1-2,2.9-3.1,5.4-3.1
		C96.1,16.3,99.9,19.3,99.9,25L99.9,25z M95.5,25c0-2.9-1.9-4.8-4.3-4.8c-2,0-4.2,1.6-4.2,4.8c0,3.3,2.1,4.8,4.2,4.8
		C93.7,29.8,95.5,28,95.5,25z">
  </path>
  <path class="st0" d="M132.2,16.7h4.9l-9,23.7h-5l3-7l-6.4-16.7h5l3.1,9.5c0.3,0.9,0.5,1.8,0.6,2.8h0.1c0.1-1,0.4-1.9,0.6-2.8
		L132.2,16.7L132.2,16.7z">
  </path>
  <path class="st0" d="M173,16.7h3.2v15.8c0,5.9-4.2,8.2-8.2,8.2c-4.6,0-7.7-2.3-8.3-6.2h3.8c0.5,1.8,2.1,2.9,4.6,2.9
		c2.4,0,4.5-1.4,4.5-4.9v-1.7c-1.2,1.8-3.2,2.8-5.5,2.8c-4,0-7.8-3-7.8-8.6s3.8-8.6,7.8-8.6c2.4,0,4.5,1,5.6,2.9L173,16.7L173,16.7z
		 M172.7,25c0-3.4-2.4-5.3-4.8-5.3c-2.6,0-4.9,2-4.9,5.3c0,3.3,2.3,5.3,4.9,5.3C170.3,30.2,172.7,28.3,172.7,25z">
  </path>
  <path class="st0" d="M178.7,33.3V9.2h3.7v24.1H178.7z">
  </path>
  <path class="st0" d="M184.1,25c0-4.9,3.7-8.7,8.6-8.7c5,0,8.7,3.8,8.7,8.7s-3.7,8.7-8.7,8.7C187.7,33.7,184.1,29.9,184.1,25z
		 M197.7,25c0-3.1-2.1-5.4-5-5.4c-2.9,0-4.9,2.2-4.9,5.4s2.1,5.3,4.9,5.3C195.6,30.4,197.7,28.1,197.7,25z">
  </path>
  <path class="st0" d="M220.1,25c0,5.6-3.8,8.7-7.8,8.7c-2.4,0-4.5-1-5.6-2.9l-0.3,2.6h-3.3V9.2h3.7v9.9c1.1-1.8,3.1-2.8,5.5-2.8
		C216.3,16.3,220.1,19.4,220.1,25L220.1,25z M216.4,25c0-3.4-2.2-5.3-4.8-5.3c-2.5,0-4.8,1.9-4.8,5.3s2.3,5.3,4.8,5.3
		C214.2,30.4,216.4,28.4,216.4,25z">
  </path>
  <path class="st0" d="M235.5,16.7h2.9v16.6h-3l-0.4-2.7c-1.1,1.9-3.4,3-5.8,3c-4,0-7.8-3.1-7.8-8.7s3.8-8.7,7.8-8.7
		c2.4,0,4.6,1.2,5.8,3.1L235.5,16.7L235.5,16.7z M234.9,25c0-3.3-2.4-5.3-4.9-5.3c-2.6,0-4.9,2-4.9,5.3c0,3.3,2.3,5.3,4.9,5.3
		C232.5,30.4,234.9,28.4,234.9,25z">
  </path>
  <path class="st0" d="M241.2,33.3V9.2h3.7v24.1H241.2z">
  </path>
 </g>
</svg>